<?xml version="1.0" standalone="no"?>
<!DOCTYPE svg PUBLIC "-//W3C//DTD SVG 20010904//EN"
 "http://www.w3.org/TR/2001/REC-SVG-20010904/DTD/svg10.dtd">
<svg version="1.0" xmlns="http://www.w3.org/2000/svg"
 width="500.000000pt" height="500.000000pt" viewBox="0 0 500.000000 500.000000"
 preserveAspectRatio="xMidYMid meet">
<metadata>
Created by potrace 1.14, written by Peter Selinger 2001-2017
</metadata>
<g transform="translate(0.000000,500.000000) scale(0.100000,-0.100000)"
fill="#000000" stroke="none">
<path d="M2525 4540 c-534 -60 -897 -179 -1368 -450 -139 -80 -202 -124 -205
-145 -3 -16 -1 -18 9 -7 7 6 23 12 36 12 30 0 31 -33 2 -54 -21 -14 -20 -15
22 -26 75 -20 132 -53 180 -102 59 -61 99 -138 99 -191 0 -23 3 -52 6 -65 6
-20 8 -21 19 -6 15 21 45 12 45 -14 0 -10 -5 -23 -12 -30 -6 -6 40 22 103 63
198 131 398 221 659 298 194 58 273 74 413 87 254 22 494 9 707 -41 93 -21
300 -87 313 -99 5 -4 -19 -27 -53 -50 -34 -23 -65 -53 -71 -68 -24 -61 37
-149 118 -171 21 -6 81 -11 133 -12 126 -1 180 -10 194 -32 12 -20 13 -18 -69
-82 -74 -59 -82 -73 -65 -134 7 -27 26 -53 59 -83 76 -69 92 -71 386 -53 100
7 116 5 170 -16 33 -12 72 -35 87 -50 34 -33 36 -24 5 22 -14 22 -48 47 -91
69 -64 33 -75 35 -204 41 -192 10 -253 32 -291 106 -19 38 -12 64 26 99 40 37
53 42 53 19 0 -26 60 -83 103 -99 28 -10 93 -17 197 -20 166 -5 223 -18 319
-72 l46 -25 -45 42 c-65 60 -150 97 -282 121 -125 22 -176 44 -207 87 -43 60
-20 106 89 176 90 58 120 89 120 125 0 36 -29 53 -115 69 -32 6 -63 15 -69 21
-6 6 18 36 67 85 64 62 77 81 77 107 0 37 -61 121 -118 164 -20 16 -39 31 -42
35 -15 20 -194 127 -282 168 -178 84 -314 125 -538 162 -100 17 -179 22 -390
24 -146 2 -301 -1 -345 -5z"/>
<path d="M575 4120 c16 -31 61 -60 93 -60 10 0 23 -5 29 -11 8 -8 13 -7 18 2
6 8 4 10 -5 4 -10 -6 -12 -4 -7 8 4 10 2 14 -6 12 -15 -6 -117 52 -117 65 0 6
-5 10 -10 10 -6 0 -4 -13 5 -30z"/>
<path d="M677 4023 c-14 -13 -7 -33 11 -33 24 0 32 8 25 26 -5 15 -25 19 -36
7z"/>
<path d="M737 4014 c-3 -3 6 -16 20 -30 32 -33 38 -27 8 8 -13 15 -25 24 -28
22z"/>
<path d="M1385 3280 c-3 -5 -2 -17 3 -26 8 -15 10 -15 15 0 4 9 14 16 22 16 9
0 13 5 10 10 -8 13 -42 13 -50 0z"/>
<path d="M1697 2938 c119 -139 217 -254 218 -255 1 -2 26 21 56 50 60 58 147
107 191 107 24 0 28 -4 28 -29 0 -32 -51 -104 -101 -143 -33 -24 -117 -72
-131 -73 -15 -1 -20 -15 -4 -15 25 0 90 36 131 71 20 18 38 29 42 26 5 -6 12
-39 15 -74 2 -23 23 -13 43 20 11 17 45 92 77 164 31 73 73 156 92 185 37 56
112 135 121 127 2 -3 -38 -131 -89 -284 l-93 -280 20 -27 c25 -33 27 -34 110
-8 l65 20 122 171 c67 94 124 169 126 166 7 -7 -45 -145 -82 -219 -39 -78 -38
-74 -18 -82 9 -4 13 -2 8 5 -4 8 1 9 15 4 12 -4 21 -2 21 4 0 6 8 11 18 11 26
-1 -21 -37 -66 -51 -31 -9 -46 -25 -94 -100 -54 -85 -56 -89 -33 -89 13 0 36
-5 50 -12 21 -9 25 -18 23 -45 -1 -18 -6 -33 -11 -33 -5 0 -7 -7 -4 -15 4 -8
1 -17 -5 -21 -7 -5 -8 -2 -3 6 6 9 4 11 -4 6 -7 -5 -10 -14 -7 -21 2 -7 -10
-26 -27 -41 -19 -17 -24 -20 -13 -6 27 31 5 28 -25 -5 -13 -14 -17 -22 -9 -18
13 8 13 7 1 -8 -15 -18 -26 -23 -16 -7 9 15 3 13 -61 -20 -39 -20 -50 -29 -33
-27 14 1 38 11 54 21 15 10 24 13 21 7 -7 -10 31 -71 44 -71 3 0 25 19 49 41
l43 42 -7 -44 c-3 -24 -15 -56 -25 -70 -19 -26 -19 -27 9 -53 l27 -26 49 92
c26 51 67 127 91 168 53 96 164 355 225 530 41 116 48 129 48 94 1 -33 -21
-172 -45 -294 -5 -25 -5 -25 11 3 9 15 18 27 22 27 3 0 3 -30 0 -67 l-5 -66
48 84 c86 150 120 200 130 194 28 -18 -16 -130 -123 -314 -37 -63 -65 -116
-62 -119 7 -7 5 -9 104 126 46 61 85 112 88 112 14 0 -9 -85 -42 -156 -21 -43
-37 -91 -36 -107 1 -28 -29 -98 -56 -129 -8 -9 -16 -29 -18 -45 -7 -56 -17
-89 -41 -134 -13 -26 -24 -49 -24 -52 0 -2 16 -7 35 -10 48 -8 119 -44 152
-79 22 -23 27 -37 27 -77 0 -65 -31 -106 -129 -166 -52 -33 -73 -51 -67 -60 4
-7 74 -91 157 -186 l149 -173 18 40 c26 60 65 224 83 345 12 89 15 241 15 898
l0 791 -950 0 -950 0 217 -252z m489 -280 c4 -7 3 -10 -1 -5 -5 4 -18 -1 -29
-10 -21 -18 -21 -18 -2 5 22 26 23 26 32 10z"/>
<path d="M2012 2726 c-20 -19 -35 -36 -32 -38 3 -2 22 14 43 35 48 46 40 49
-11 3z"/>
<path d="M2044 2718 l-29 -33 33 29 c30 28 37 36 29 36 -2 0 -16 -15 -33 -32z"/>
<path d="M2056 2529 c21 -23 21 -23 21 -5 0 8 -9 17 -20 20 -18 4 -18 4 -1
-15z"/>
<path d="M2388 2478 c-21 -6 -38 -13 -38 -16 0 -11 48 -67 52 -62 32 43 58 80
58 84 0 8 -28 6 -72 -6z"/>
<path d="M2128 2413 c7 -3 16 -2 19 1 4 3 -2 6 -13 5 -11 0 -14 -3 -6 -6z"/>
<path d="M2304 2186 c-3 -8 -4 -31 -1 -52 4 -38 4 -37 5 8 1 26 7 49 15 51 9
4 9 6 -1 6 -7 1 -15 -5 -18 -13z"/>
<path d="M2918 1835 c-4 -4 -4 -13 -1 -21 6 -16 -16 -55 -55 -97 -14 -15 -27
-33 -28 -40 -1 -6 -5 -19 -9 -28 -4 -11 11 -36 46 -77 l51 -61 48 30 c26 16
68 47 94 70 39 35 46 46 46 77 0 53 -33 100 -84 123 -53 23 -99 33 -108 24z"/>
<path d="M1686 1692 c-10 -16 0 -27 33 -37 16 -5 21 -4 17 4 -4 6 -13 11 -21
11 -7 0 -15 8 -17 18 -3 13 -5 14 -12 4z"/>
<path d="M1781 1643 c-1 -7 -17 -19 -36 -27 -31 -13 -50 -46 -26 -46 17 0 73
60 68 72 -4 10 -6 10 -6 1z"/>
<path d="M1781 1578 c0 -9 -19 -30 -40 -47 -51 -41 -70 -91 -46 -127 9 -14 27
-29 41 -34 32 -13 174 -13 193 -1 10 6 -21 8 -80 4 -86 -5 -96 -4 -121 17 -44
34 -38 74 18 126 31 29 44 49 41 61 -4 15 -5 15 -6 1z"/>
<path d="M2650 1559 c0 -5 5 -7 10 -4 6 3 10 8 10 11 0 2 -4 4 -10 4 -5 0 -10
-5 -10 -11z"/>
<path d="M2446 1467 c3 -10 9 -15 12 -12 3 3 0 11 -7 18 -10 9 -11 8 -5 -6z"/>
<path d="M1950 1380 c0 -5 15 -10 33 -10 24 0 28 3 17 10 -20 13 -50 13 -50 0z"/>
<path d="M2676 1208 c5 -7 2 -9 -9 -5 -8 3 -21 -1 -27 -8 -7 -8 -17 -12 -24
-8 -6 3 -2 -3 8 -15 20 -23 32 -30 21 -12 -3 6 3 10 15 10 13 0 19 -4 14 -12
-5 -7 -3 -8 6 -3 7 5 25 9 39 10 14 1 25 7 24 13 -2 7 2 12 9 12 6 0 3 7 -8
15 -23 18 -79 21 -68 3z m60 -20 c1 -8 -4 -15 -12 -15 -7 0 -11 4 -8 9 3 4 0
8 -5 8 -6 0 -11 -4 -11 -8 0 -5 -15 -8 -34 -8 -25 1 -32 4 -24 13 5 6 15 10
23 7 7 -3 15 -1 19 4 9 14 49 7 52 -10z"/>
<path d="M1897 1165 c-4 -8 -2 -17 3 -20 6 -4 10 3 10 14 0 25 -6 27 -13 6z"/>
<path d="M1966 1147 c3 -10 9 -15 12 -12 3 3 0 11 -7 18 -10 9 -11 8 -5 -6z"/>
<path d="M3315 1051 c-17 -40 -14 -61 9 -61 13 0 36 41 36 64 0 8 -6 19 -13
25 -11 9 -18 3 -32 -28z"/>
</g>
</svg>
